<svg xmlns="http://www.w3.org/2000/svg" width="22" height="26" viewBox="0 0 22 26">
    <path fill="#631E8F" fill-rule="nonzero" d="M10.713 25.933a.645.645 0 0 0 .425 0c10.567-3.676 10.412-12.43 10.28-18.828-.013-.697-.026-1.353-.026-1.99a.65.65 0 0 0-.648-.651c-3.908 0-6.883-1.13-9.368-3.557a.646.646 0 0 0-.905 0c-2.485 2.425-5.46 3.557-9.368 3.557a.65.65 0 0 0-.648.65c0 .638 0 1.302-.025 1.991-.13 6.399-.285 15.15 10.283 18.828zM1.728 7.136c0-.473.018-.929.023-1.376 3.732-.112 6.668-1.234 9.174-3.49 2.506 2.256 5.442 3.383 9.176 3.492 0 .445.013.903.024 1.377.119 6.279.259 14.082-9.2 17.493-9.464-3.413-9.33-11.217-9.197-17.496zm7.145 9.836c1.32.52 2.788.52 4.11 0 .535-.2.808-.8.609-1.337l-.812-2.285a2.43 2.43 0 0 0 .545-1.939 2.43 2.43 0 0 0-2.588-2.058A2.434 2.434 0 0 0 9.07 13.35l-.809 2.287a1.042 1.042 0 0 0 .609 1.335h.003zm1.352-4.306a1.14 1.14 0 0 1-.367-1.266 1.133 1.133 0 0 1 2.14 0c.158.458.01.965-.368 1.266a.652.652 0 0 0-.207.726l.865 2.446a4.327 4.327 0 0 1-2.724 0l.866-2.446a.652.652 0 0 0-.207-.726h.002z"/>
</svg>
