<svg xmlns="http://www.w3.org/2000/svg" width="124" height="165" viewBox="0 0 124 165">
    <g fill="none" fill-rule="evenodd">
        <path fill="#4A4A4A" d="M6.93 113.808h2.736c.648 0 1.146-.193 1.495-.578.35-.385.525-.92.525-1.605 0-.668-.176-1.185-.525-1.553-.349-.368-.847-.553-1.495-.553H6.93v4.289zM11.303 123l-2.147-4.673H6.93V123H1v-18h8.666c2.437 0 4.32.562 5.65 1.682 1.329 1.122 1.993 2.71 1.993 4.763 0 1.302-.242 2.436-.728 3.403a5.594 5.594 0 0 1-2.109 2.298L18 123h-6.698zM19 105h15.761v4.52h-9.595v2.208h8.718v4.52h-8.718v2.233H35V123H19zM44.753 113.23c.355-.385.532-.92.532-1.605 0-.668-.177-1.185-.532-1.553-.355-.368-.861-.553-1.52-.553h-2.207v4.289h2.208c.658 0 1.164-.193 1.52-.578m4.298-6.548c1.299 1.122 1.948 2.71 1.948 4.763 0 2.174-.65 3.865-1.948 5.072-1.299 1.207-3.135 1.81-5.507 1.81h-2.52V123H35v-18h8.545c2.372 0 4.208.562 5.507 1.682M78.93 113.808h2.736c.648 0 1.146-.193 1.495-.578.35-.385.525-.92.525-1.605 0-.668-.176-1.185-.525-1.553-.349-.368-.847-.553-1.495-.553H78.93v4.289zM83.303 123l-2.147-4.673H78.93V123H73v-18h8.666c2.437 0 4.32.562 5.65 1.682 1.329 1.122 1.993 2.71 1.993 4.763 0 1.302-.242 2.436-.728 3.403a5.594 5.594 0 0 1-2.109 2.298L90 123h-6.698zM90 105h17v4.7h-5.388V123h-6.25v-13.3H90zM110.564 116.196h3.743l-1.845-5.264-1.898 5.264zm6.103 6.804l-.898-2.542h-6.744l-.922 2.542H102l7.59-18h6.102L123 123h-6.333z"/>
        <path fill="#009EE0" d="M14.523 129.897c-.901-.555-1.776-.833-2.625-.833-.85 0-1.621.225-2.314.675-.695.451-1.233 1.074-1.616 1.87s-.574 1.697-.574 2.703c0 1.005.19 1.91.574 2.717.383.807.921 1.44 1.616 1.901a4.09 4.09 0 0 0 2.314.691c.787 0 1.63-.235 2.531-.707a8.666 8.666 0 0 0 2.408-1.869L21 141.538a13.686 13.686 0 0 1-4.396 3.252c-1.708.806-3.401 1.21-5.08 1.21-2.194 0-4.167-.498-5.917-1.493a10.706 10.706 0 0 1-4.116-4.147C.497 138.59 0 136.605 0 134.406c0-2.179.507-4.132 1.522-5.86 1.015-1.728 2.418-3.084 4.21-4.07 1.79-.983 3.815-1.476 6.073-1.476 1.656 0 3.324.372 5.001 1.115 1.678.745 3.076 1.734 4.194 2.97l-4.163 4.995a7.953 7.953 0 0 0-2.314-2.183M22 146h7v-22h-7zM39.324 139.782c.635.684 1.398 1.027 2.287 1.027.868 0 1.589-.337 2.16-1.011.573-.674.859-1.556.859-2.646V124H52v13.152c0 1.968-.429 3.694-1.286 5.18-.859 1.487-2.071 2.636-3.638 3.449-1.568.812-3.4 1.219-5.496 1.219-2.097 0-3.946-.407-5.544-1.22-1.6-.812-2.839-1.96-3.718-3.448-.879-1.486-1.318-3.212-1.318-5.18V124h7.37v13.152c0 1.07.318 1.946.954 2.63M67.298 138.907c.792-.962 1.189-2.249 1.189-3.86 0-1.632-.428-2.94-1.284-3.923-.856-.984-2.003-1.475-3.44-1.475h-2.408v10.702h2.758c1.33 0 2.393-.481 3.185-1.444m2.996-13.558c1.817.9 3.222 2.182 4.216 3.845.993 1.663 1.49 3.593 1.49 5.79 0 2.218-.507 4.154-1.522 5.807-1.014 1.653-2.456 2.934-4.327 3.844-1.87.91-4.042 1.365-6.514 1.365H54v-22h9.922c2.43 0 4.554.45 6.372 1.349M85.603 137.684h4.635l-2.286-6.434-2.349 6.434zM93.16 146l-1.111-3.107h-8.35L82.555 146H75l9.397-22h7.556L101 146h-7.841zM114.298 138.907c.792-.962 1.189-2.249 1.189-3.86 0-1.632-.428-2.94-1.284-3.923-.856-.984-2.003-1.475-3.44-1.475h-2.408v10.702h2.758c1.33 0 2.393-.481 3.185-1.444m2.996-13.558c1.817.9 3.222 2.182 4.216 3.845.993 1.663 1.49 3.593 1.49 5.79 0 2.218-.507 4.154-1.522 5.807-1.014 1.653-2.456 2.934-4.327 3.844-1.87.91-4.042 1.365-6.514 1.365H101v-22h9.922c2.43 0 4.554.45 6.372 1.349"/>
        <path fill="#F58634" d="M62.242 118.297c-1.125 0-1.31-.049-2.313-.449a3.62 3.62 0 0 1-.739-.415 5.308 5.308 0 0 1-1.178-1.164c-.49-.654-.863-1.818-.844-2.612.004-.16.038-.303.055-.513.035-.435.207-.953.37-1.33 1.181-2.706 5.214-3.866 7.807-1.38.628.601 1.036 1.319 1.272 2.152.174.614.172 1.386.037 2.035a4.348 4.348 0 0 1-.691 1.586c-.774 1.143-2.287 2.09-3.776 2.09M61.582 104h.807c.849.03 1.69.158 2.482.38.358.101.7.213 1.044.356.744.312 1.966.992 2.558 1.526.674.606.792.688 1.363 1.362.343.405.845 1.158 1.088 1.626.31.599.56 1.212.751 1.95.17.658.239 1.072.273 1.753.011.222.057.328.052.61-.011.571-.16 1.821-.313 2.327-.387 1.28-.945 2.594-1.669 3.74-.191.303-.348.54-.536.843-.484.778-1.124 1.597-1.7 2.304l-1.282 1.44c-.141.161-.187.222-.344.373l-.657.68c-.117.121-.22.21-.342.328l-2.538 2.202a.971.971 0 0 1-.492.2h-.255a.972.972 0 0 1-.519-.223c-.75-.647-1.28-1.033-2.049-1.781-.227-.222-.464-.37-.805-.726l-1.121-1.172c-.297-.28-.813-.93-1.075-1.218-.997-1.094-2.665-3.62-3.272-5.059-.597-1.415-1.031-2.429-1.031-4.212 0-3.08 1.594-6.065 4.194-7.828.252-.17.465-.31.735-.466.27-.155.495-.264.793-.409 1.15-.557 2.497-.857 3.86-.906"/>
        <path fill="#4A4A4A" d="M9.025 156H10l-1.598 8h-.729l1.387-6.948-4.465 6.09H4.16l-2.033-6.09L.74 164H0l1.598-8h.987l2.01 6.046zM11.974 159.004a2.372 2.372 0 0 0-.886.924c-.214.394-.32.836-.32 1.327 0 .62.181 1.123.546 1.508.365.386.848.58 1.45.58.458 0 .875-.11 1.251-.33.376-.22.671-.525.886-.919.213-.393.321-.839.321-1.338 0-.62-.183-1.123-.547-1.509-.365-.385-.848-.577-1.45-.577-.458 0-.875.111-1.251.334m2.735-.658c.41.231.727.55.953.959.225.408.338.877.338 1.405a3.3 3.3 0 0 1-.434 1.69c-.29.5-.686.89-1.19 1.174a3.364 3.364 0 0 1-1.68.426c-.534 0-1.004-.115-1.41-.346a2.44 2.44 0 0 1-.948-.959c-.225-.408-.338-.876-.338-1.406 0-.627.145-1.191.434-1.69.29-.498.684-.89 1.184-1.173a3.335 3.335 0 0 1 1.675-.426c.534 0 1.006.115 1.416.346M23.464 158.483c.357.322.536.77.536 1.346 0 .198-.022.406-.066.626L23.249 164h-.752l.674-3.466a2.53 2.53 0 0 0 .045-.477c0-.432-.128-.767-.382-1.006s-.617-.358-1.088-.358a2.31 2.31 0 0 0-1.547.586c-.435.382-.718.903-.851 1.562L18.74 164H18l1.138-5.955h.752l-.244 1.25c.258-.416.584-.734.978-.954.394-.22.842-.333 1.343-.341.64 0 1.14.161 1.497.483M28.853 156.127c.098.085.147.19.147.316 0 .17-.079.315-.238.437a.898.898 0 0 1-.561.182.576.576 0 0 1-.379-.128.393.393 0 0 1-.154-.314c0-.17.08-.316.239-.438a.898.898 0 0 1 .56-.182c.16 0 .288.042.386.127zm-.456 2.075L26.94 164H26l1.458-5.798h.94zM30.006 163.071c-.033.157-.05.309-.05.457 0 .248.056.427.168.539.112.11.284.166.516.166.373-.016.758-.14 1.155-.37l.174.667c-.497.297-.998.453-1.503.47-.422 0-.754-.112-.994-.334-.24-.223-.36-.548-.36-.976 0-.15.02-.335.062-.558l.77-3.82H29l.125-.655h.943l.336-1.657h.832l-.335 1.657H33l-.124.655h-2.112l-.758 3.759zM34.974 159.004a2.372 2.372 0 0 0-.886.924c-.214.394-.32.836-.32 1.327 0 .62.181 1.123.546 1.508.365.386.848.58 1.45.58.458 0 .875-.11 1.251-.33.376-.22.671-.525.886-.919.213-.393.321-.839.321-1.338 0-.62-.183-1.123-.547-1.509-.365-.385-.848-.577-1.45-.577-.458 0-.875.111-1.251.334m2.735-.658c.41.231.727.55.953.959.225.408.338.877.338 1.405a3.3 3.3 0 0 1-.434 1.69c-.29.5-.686.89-1.19 1.174a3.364 3.364 0 0 1-1.68.426c-.534 0-1.004-.115-1.41-.346a2.44 2.44 0 0 1-.948-.959c-.225-.408-.338-.876-.338-1.406 0-.627.145-1.191.434-1.69.29-.498.684-.89 1.184-1.173a3.335 3.335 0 0 1 1.675-.426c.534 0 1.006.115 1.416.346M43.66 158.359A2.707 2.707 0 0 1 45 158l-.089.74a2.37 2.37 0 0 0-1.59.553c-.454.375-.774.882-.958 1.52l-.62 3.187H41l1.152-5.966h.754l-.266 1.332a3 3 0 0 1 1.02-1.007M46.734 159.2c-.463.37-.761.857-.894 1.46h4.46c.007-.626-.158-1.118-.496-1.477-.339-.358-.816-.537-1.43-.537-.63 0-1.177.184-1.64.554zm-.963 2.061v.034c0 .626.192 1.128.578 1.505.385.377.9.566 1.546.566.373 0 .728-.06 1.062-.181.335-.121.63-.295.888-.521l.373.498c-.304.272-.658.48-1.062.623a3.847 3.847 0 0 1-1.296.215c-.568 0-1.068-.113-1.5-.34a2.454 2.454 0 0 1-1.004-.95c-.237-.408-.356-.88-.356-1.415 0-.62.148-1.18.444-1.681a3.168 3.168 0 0 1 1.22-1.184 3.47 3.47 0 0 1 1.71-.43c.81 0 1.45.234 1.92.702.47.468.706 1.094.706 1.88 0 .188-.02.414-.059.679h-5.17zM52.974 159.004a2.372 2.372 0 0 0-.886.924c-.214.394-.32.836-.32 1.327 0 .62.181 1.123.546 1.508.365.386.848.58 1.45.58.458 0 .875-.11 1.251-.33.376-.22.671-.525.886-.919.213-.393.321-.839.321-1.338 0-.62-.183-1.123-.547-1.509-.365-.385-.848-.577-1.45-.577-.458 0-.875.111-1.251.334m2.735-.658c.41.231.727.55.953.959.225.408.338.877.338 1.405a3.3 3.3 0 0 1-.434 1.69c-.29.5-.686.89-1.19 1.174a3.364 3.364 0 0 1-1.68.426c-.534 0-1.004-.115-1.41-.346a2.44 2.44 0 0 1-.948-.959c-.225-.408-.338-.876-.338-1.406 0-.627.145-1.191.434-1.69.29-.498.684-.89 1.184-1.173a3.335 3.335 0 0 1 1.675-.426c.534 0 1.006.115 1.416.346M61.409 163.66a2.528 2.528 0 0 1-1.038-.953 2.661 2.661 0 0 1-.371-1.406c0-.628.16-1.194.478-1.696a3.298 3.298 0 0 1 1.302-1.18 3.934 3.934 0 0 1 1.83-.425c.503 0 .96.075 1.371.227.41.15.75.363 1.019.635l-.528.522c-.495-.47-1.128-.703-1.9-.703-.503 0-.964.109-1.383.328-.42.22-.749.524-.988.914-.239.389-.358.83-.358 1.32 0 .62.203 1.123.61 1.509.406.386.941.579 1.603.579.436 0 .84-.066 1.208-.199.37-.132.688-.326.956-.584l.44.454a3.522 3.522 0 0 1-1.195.737 4.27 4.27 0 0 1-1.521.261c-.58 0-1.09-.114-1.535-.34M70.853 156.127c.098.085.147.19.147.316 0 .17-.079.315-.238.437a.898.898 0 0 1-.561.182.576.576 0 0 1-.379-.128.393.393 0 0 1-.154-.314c0-.17.08-.316.239-.438a.898.898 0 0 1 .56-.182c.16 0 .288.042.386.127zm-.456 2.075L68.94 164H68l1.458-5.798h.94zM71.536 163.517c-.358-.322-.536-.771-.536-1.347 0-.204.022-.412.066-.625l.686-3.545h.75l-.673 3.466c-.03.152-.045.31-.045.477 0 .432.128.767.382 1.006.254.238.616.357 1.088.357a2.31 2.31 0 0 0 1.547-.585c.435-.382.718-.903.851-1.562L76.26 158H77l-1.138 5.954h-.752l.244-1.25a2.68 2.68 0 0 1-.978.955c-.394.22-.842.333-1.343.341-.64 0-1.14-.161-1.497-.483M81.972 163.932a2.64 2.64 0 0 0 .893-1.03c.218-.436.327-.91.327-1.425 0-.643-.182-1.166-.544-1.568-.362-.403-.836-.603-1.42-.603-.45 0-.865.127-1.242.38a2.688 2.688 0 0 0-.899 1.031 3.083 3.083 0 0 0-.333 1.424c0 .643.183 1.166.55 1.568.365.403.844.603 1.436.603.444 0 .855-.126 1.232-.38m-2.769.712a2.389 2.389 0 0 1-.887-.995c-.21-.426-.316-.913-.316-1.46 0-.668.14-1.277.422-1.828.28-.55.661-.985 1.143-1.303a2.831 2.831 0 0 1 1.597-.476c.584 0 1.078.156 1.48.47.404.314.672.748.805 1.303l.81-4.355H85l-1.642 8.952h-.743l.233-1.219a2.988 2.988 0 0 1-1.032.935 2.7 2.7 0 0 1-1.309.332c-.488 0-.922-.119-1.304-.356M89.27 163.002c.404-.237.724-.558.959-.964.234-.407.352-.85.352-1.332 0-.6-.196-1.09-.584-1.465-.39-.377-.9-.564-1.527-.564-.485 0-.93.118-1.336.355a2.658 2.658 0 0 0-1.323 2.295c0 .602.197 1.09.59 1.466.393.377.908.564 1.545.564.477 0 .918-.118 1.323-.355m-2.976.665a2.373 2.373 0 0 1-.953-.93 2.709 2.709 0 0 1-.34-1.365c0-.624.15-1.193.453-1.709.302-.514.711-.92 1.229-1.218a3.379 3.379 0 0 1 1.717-.445c.628 0 1.158.146 1.591.44.434.293.722.699.865 1.218l.346-1.613H92l-1.24 5.91h-.8l.251-1.14a3.1 3.1 0 0 1-1.109.875c-.437.207-.906.31-1.407.31-.525 0-.992-.11-1.402-.333M97.972 163.932a2.64 2.64 0 0 0 .893-1.03c.218-.436.327-.91.327-1.425 0-.643-.182-1.166-.544-1.568-.362-.403-.836-.603-1.42-.603-.45 0-.865.127-1.242.38a2.688 2.688 0 0 0-.899 1.031 3.083 3.083 0 0 0-.333 1.424c0 .643.183 1.166.55 1.568.365.403.844.603 1.436.603.444 0 .855-.126 1.232-.38m-2.769.712a2.389 2.389 0 0 1-.887-.995c-.21-.426-.316-.913-.316-1.46 0-.668.14-1.277.422-1.828.28-.55.661-.985 1.143-1.303a2.831 2.831 0 0 1 1.597-.476c.584 0 1.078.156 1.48.47.404.314.672.748.805 1.303l.81-4.355H101l-1.642 8.952h-.743l.233-1.219a2.988 2.988 0 0 1-1.032.935 2.7 2.7 0 0 1-1.309.332c-.488 0-.922-.119-1.304-.356M106.27 163.002c.404-.237.724-.558.959-.964.234-.407.352-.85.352-1.332 0-.6-.196-1.09-.584-1.465-.39-.377-.9-.564-1.527-.564-.485 0-.93.118-1.336.355a2.658 2.658 0 0 0-1.323 2.295c0 .602.197 1.09.59 1.466.393.377.908.564 1.545.564.477 0 .918-.118 1.323-.355m-2.976.665a2.373 2.373 0 0 1-.953-.93 2.709 2.709 0 0 1-.34-1.365c0-.624.15-1.193.453-1.709.302-.514.711-.92 1.229-1.218a3.379 3.379 0 0 1 1.717-.445c.628 0 1.158.146 1.591.44.434.293.722.699.865 1.218l.346-1.613H109l-1.24 5.91h-.8l.251-1.14a3.1 3.1 0 0 1-1.109.875c-.437.207-.906.31-1.407.31-.525 0-.992-.11-1.402-.333M114.464 158.483c.357.322.536.77.536 1.346 0 .198-.022.406-.066.626l-.685 3.545h-.752l.674-3.466a2.53 2.53 0 0 0 .045-.477c0-.432-.128-.767-.382-1.006s-.617-.358-1.088-.358a2.31 2.31 0 0 0-1.547.586c-.435.382-.718.903-.851 1.562L109.74 164H109l1.138-5.955h.752l-.244 1.25c.258-.416.584-.734.978-.954.394-.22.842-.333 1.343-.341.64 0 1.14.161 1.497.483M119.974 159.004a2.372 2.372 0 0 0-.886.924c-.214.394-.32.836-.32 1.327 0 .62.181 1.123.546 1.508.365.386.848.58 1.45.58.458 0 .875-.11 1.251-.33.376-.22.671-.525.886-.919.213-.393.321-.839.321-1.338 0-.62-.183-1.123-.547-1.509-.365-.385-.848-.577-1.45-.577-.458 0-.875.111-1.251.334m2.735-.658c.41.231.727.55.953.959.225.408.338.877.338 1.405a3.3 3.3 0 0 1-.434 1.69c-.29.5-.686.89-1.19 1.174a3.364 3.364 0 0 1-1.68.426c-.534 0-1.004-.115-1.41-.346a2.44 2.44 0 0 1-.948-.959c-.225-.408-.338-.876-.338-1.406 0-.627.145-1.191.434-1.69.29-.498.684-.89 1.184-1.173a3.335 3.335 0 0 1 1.675-.426c.534 0 1.006.115 1.416.346M15.813 66.53h5.88v-7.004h-5.88v7.003zm21.271 23.39h21.694v-2.801H37.084v2.8zM15.813 55.466h5.88v-6.444h-5.88v6.444zm0-10.645h5.88v-6.442h-5.88v6.442zm0-10.364h5.88v-6.444h-5.88v6.444zm0-10.785h5.88v-6.443h-5.88v6.443zm0-10.366h5.88V6.585h-5.88v6.721zM24.49 66.53h5.878v-7.003H24.49v7.003zm0-11.063h5.878v-6.444H24.49v6.444zm0-10.645h5.878v-6.442H24.49v6.442zm0-10.364h5.878v-6.444H24.49v6.444zm0-10.785h5.878v-6.443H24.49v6.443zm0-10.366h5.878V6.585H24.49v6.721zm14.697 71.291h1.396V36.976h-1.396v47.621zm5.317 0h1.682V36.976h-1.682v47.621zm5.598 0h1.4V36.976h-1.4v47.621zm69.979 5.323v-2.801h-2.938c.417-.98.557-1.963.557-2.943 0-4.48-3.64-8.122-8.116-8.122-.559 0-1.119 0-1.68.14-1.54-1.96-3.779-3.222-6.438-3.222-4.48 0-8.117 3.643-8.117 8.124v.14c-3.079.138-5.597 2.66-5.597 5.743v.14H75.575V76.054c3.638-.56 6.579-3.642 6.579-7.563a7.53 7.53 0 0 0-7.558-7.564 7.529 7.529 0 0 0-7.558 7.564c0 3.92 2.941 7.141 6.719 7.563v11.065H61.579V33.334h-26.03V74.92l3.346 2.72v2.634l-3.346-2.721v.855l1.535 1.235V89.92h-5.727v-5.513h-3.936v5.513h-5.727V93H124v-3.08h-3.918zM33.868 77.055v-.87l-4.479-3.641-9.507 7.729v-2.634l9.507-7.728 4.48 3.641v-41.62h3.639V0H11.616v87.119H0v2.8h21.694V79.643l7.695-6.19 4.48 3.603z"/>
    </g>
</svg>
