<svg xmlns="http://www.w3.org/2000/svg" width="239" height="78" viewBox="0 0 239 78">
    <g fill="none" fill-rule="evenodd">
        <path fill="#4A4A4A" d="M89.326 13.765h3.379c.8 0 1.416-.235 1.847-.706.431-.471.648-1.125.648-1.962 0-.816-.217-1.449-.648-1.898-.431-.45-1.047-.675-1.847-.675h-3.379v5.24zM94.726 25l-2.653-5.711h-2.747V25H82V3h10.705c3.01 0 5.337.686 6.979 2.056 1.642 1.37 2.463 3.311 2.463 5.821 0 1.591-.3 2.977-.9 4.16a6.865 6.865 0 0 1-2.605 2.808L103 25h-8.274zM105 3h19.702v5.524h-11.994v2.699h10.897v5.524h-10.897v2.73H125V25h-20zM138.192 13.059c.443-.471.665-1.125.665-1.962 0-.816-.222-1.448-.665-1.898-.444-.45-1.078-.675-1.9-.675h-2.76v5.24h2.76c.822 0 1.456-.234 1.9-.705m5.372-8.003c1.624 1.37 2.436 3.311 2.436 5.821 0 2.658-.812 4.724-2.436 6.199-1.622 1.475-3.917 2.213-6.883 2.213h-3.149V25H126V3h10.681c2.966 0 5.26.686 6.883 2.056M181.326 13.765h3.379c.8 0 1.416-.235 1.847-.706.431-.471.648-1.125.648-1.962 0-.816-.217-1.449-.648-1.898-.431-.45-1.047-.675-1.847-.675h-3.379v5.24zm5.4 11.235l-2.653-5.711h-2.747V25H174V3h10.705c3.01 0 5.337.686 6.979 2.056 1.642 1.37 2.463 3.311 2.463 5.821 0 1.591-.3 2.977-.9 4.16a6.865 6.865 0 0 1-2.605 2.808L195 25h-8.274zM195 3h21v5.743h-6.656V25h-7.721V8.743H195zM222.011 16.684h4.813l-2.373-6.434-2.44 6.434zM229.857 25l-1.154-3.107h-8.67L218.846 25H211l9.758-22h7.846L238 25h-8.143z"/>
        <path fill="#009EE0" d="M99.672 33.696c-1.158-.7-2.283-1.05-3.375-1.05a5.424 5.424 0 0 0-2.975.852c-.893.568-1.585 1.354-2.077 2.358-.493 1.003-.739 2.138-.739 3.407 0 1.267.246 2.41.739 3.426.492 1.017 1.184 1.816 2.077 2.397.891.58 1.883.871 2.975.871 1.012 0 2.097-.297 3.255-.891a11.116 11.116 0 0 0 3.096-2.357L108 48.374c-1.572 1.717-3.455 3.084-5.652 4.1-2.196 1.017-4.373 1.526-6.53 1.526-2.823 0-5.358-.628-7.609-1.883a13.633 13.633 0 0 1-5.292-5.229C81.64 44.657 81 42.154 81 39.381c0-2.747.652-5.209 1.957-7.389 1.305-2.179 3.108-3.888 5.412-5.13C90.672 25.622 93.275 25 96.177 25c2.13 0 4.274.47 6.43 1.406 2.158.939 3.955 2.186 5.393 3.744l-5.352 6.299a10.147 10.147 0 0 0-2.976-2.753M109 54h9V26h-9zM131.702 45.9c.817.862 1.797 1.294 2.941 1.294 1.116 0 2.042-.426 2.777-1.275.736-.85 1.104-1.961 1.104-3.336V26H148v16.583c0 2.48-.551 4.657-1.654 6.531-1.103 1.876-2.662 3.324-4.677 4.349-2.016 1.024-4.371 1.537-7.067 1.537-2.696 0-5.072-.513-7.127-1.537-2.057-1.025-3.65-2.473-4.78-4.349-1.13-1.874-1.695-4.05-1.695-6.531V26h9.477v16.583c0 1.348.408 2.454 1.225 3.316M166.925 44.973c1.008-1.224 1.513-2.862 1.513-4.913 0-2.077-.545-3.742-1.634-4.993-1.089-1.252-2.55-1.877-4.378-1.877h-3.066v13.62h3.51c1.695 0 3.046-.612 4.055-1.837m3.813-17.256c2.313 1.145 4.1 2.776 5.366 4.893 1.264 2.118 1.896 4.574 1.896 7.37 0 2.823-.646 5.286-1.937 7.39s-3.126 3.734-5.507 4.893c-2.38 1.158-5.144 1.737-8.291 1.737H150V26h12.628c3.093 0 5.796.572 8.11 1.717M190.458 43.415h5.883l-2.901-8.188-2.982 8.188zM200.048 54l-1.41-3.954H188.04L186.59 54H177l11.927-28h9.59L210 54h-9.952zM226.925 44.973c1.008-1.224 1.513-2.862 1.513-4.913 0-2.077-.545-3.742-1.634-4.993-1.089-1.252-2.55-1.877-4.378-1.877h-3.066v13.62h3.51c1.695 0 3.046-.612 4.055-1.837m3.813-17.256c2.313 1.145 4.1 2.776 5.366 4.893 1.264 2.118 1.896 4.574 1.896 7.37 0 2.823-.646 5.286-1.937 7.39s-3.126 3.734-5.507 4.893c-2.38 1.158-5.144 1.737-8.291 1.737H210V26h12.628c3.093 0 5.796.572 8.11 1.717"/>
        <path fill="#F58634" d="M159.803 18.871c-1.406 0-1.639-.06-2.892-.56a4.525 4.525 0 0 1-.923-.52c-.563-.39-1.07-.92-1.473-1.455-.613-.818-1.08-2.272-1.055-3.264.005-.201.047-.38.069-.642.044-.543.258-1.192.463-1.662 1.476-3.383 6.517-4.833 9.758-1.726.785.752 1.295 1.65 1.59 2.691.217.767.215 1.732.046 2.543-.153.734-.446 1.366-.864 1.983-.967 1.43-2.859 2.612-4.72 2.612M158.979 1h1.008a13.26 13.26 0 0 1 3.102.476c.448.125.876.265 1.305.444.93.39 2.459 1.24 3.198 1.907.843.758.99.861 1.704 1.703a13.568 13.568 0 0 1 1.36 2.032c.388.749.7 1.516.939 2.438.213.823.298 1.34.34 2.191.015.277.072.41.065.764-.013.713-.198 2.275-.39 2.907-.485 1.602-1.182 3.244-2.086 4.675-.24.38-.435.676-.671 1.054-.605.973-1.404 1.996-2.125 2.88l-1.602 1.8c-.177.202-.233.278-.43.466l-.822.85c-.145.152-.274.262-.427.41l-3.172 2.753c-.173.138-.39.223-.615.25h-.319a1.215 1.215 0 0 1-.649-.279c-.937-.808-1.599-1.291-2.56-2.226-.285-.277-.58-.464-1.008-.908l-1.4-1.465c-.371-.35-1.017-1.163-1.344-1.522-1.246-1.367-3.331-4.525-4.09-6.323-.747-1.77-1.289-3.037-1.289-5.265 0-3.85 1.993-7.582 5.243-9.786.314-.213.58-.388.918-.582.338-.194.618-.33.992-.511 1.438-.697 3.12-1.071 4.825-1.133"/>
        <path fill="#4A4A4A" d="M92.732 66H94l-2.077 11h-.947l1.802-9.554-5.805 8.375h-.565l-2.643-8.375L81.962 77H81l2.077-11h1.284l2.612 8.313zM96.632 70.338a3.162 3.162 0 0 0-1.181 1.233 3.647 3.647 0 0 0-.428 1.769c0 .827.243 1.497.729 2.011s1.13.772 1.932.772c.612 0 1.168-.146 1.67-.439.5-.292.894-.7 1.18-1.225.285-.524.429-1.119.429-1.785 0-.825-.244-1.496-.73-2.01-.486-.515-1.13-.771-1.932-.771-.612 0-1.168.149-1.67.445m3.648-.877c.545.309.97.734 1.27 1.279.301.544.451 1.17.451 1.874 0 .837-.193 1.589-.58 2.253a4.159 4.159 0 0 1-1.586 1.566 4.485 4.485 0 0 1-2.24.567c-.712 0-1.338-.154-1.88-.461a3.254 3.254 0 0 1-1.263-1.279c-.301-.544-.451-1.169-.451-1.875 0-.835.193-1.588.58-2.253a4.176 4.176 0 0 1 1.578-1.565c.667-.378 1.411-.567 2.233-.567.712 0 1.34.154 1.888.461M111.285 69.644c.477.43.715 1.028.715 1.795 0 .263-.03.54-.089.834L110.998 77h-1.002l.899-4.621c.039-.202.06-.414.06-.637 0-.576-.17-1.023-.51-1.34-.338-.32-.822-.478-1.45-.478a3.08 3.08 0 0 0-2.063.78c-.58.51-.958 1.205-1.135 2.084l-.81 4.212H104l1.517-7.94h1.002l-.324 1.667c.343-.555.779-.98 1.304-1.273.526-.293 1.122-.444 1.79-.454.854 0 1.52.215 1.996.644M117.804 66.175c.13.116.196.26.196.434 0 .233-.105.433-.318.6a1.174 1.174 0 0 1-.747.252.753.753 0 0 1-.505-.176.547.547 0 0 1-.206-.433c0-.234.107-.434.318-.601.212-.167.461-.251.748-.251a.74.74 0 0 1 .514.175zm-.608 2.852L115.253 77H114l1.944-7.973h1.252zM119.258 75.348a3.32 3.32 0 0 0-.062.629c0 .34.07.586.21.74.139.152.354.229.644.229.466-.023.947-.193 1.444-.51l.218.918c-.622.408-1.249.623-1.88.646-.527 0-.942-.153-1.242-.46-.3-.305-.45-.753-.45-1.342 0-.204.025-.46.078-.766l.962-5.253H118l.156-.9h1.18l.419-2.279h1.04l-.42 2.278H123l-.155.901h-2.64l-.947 5.169zM125.632 70.338a3.162 3.162 0 0 0-1.181 1.233 3.647 3.647 0 0 0-.428 1.769c0 .827.243 1.497.729 2.011s1.13.772 1.932.772c.612 0 1.168-.146 1.67-.439.5-.292.894-.7 1.18-1.225.285-.524.429-1.119.429-1.785 0-.825-.244-1.496-.73-2.01-.486-.515-1.13-.771-1.932-.771-.612 0-1.168.149-1.67.445m3.648-.877c.545.309.97.734 1.27 1.279.301.544.451 1.17.451 1.874 0 .837-.193 1.589-.58 2.253a4.159 4.159 0 0 1-1.586 1.566 4.485 4.485 0 0 1-2.24.567c-.712 0-1.338-.154-1.88-.461a3.254 3.254 0 0 1-1.263-1.279c-.301-.544-.451-1.169-.451-1.875 0-.835.193-1.588.58-2.253a4.176 4.176 0 0 1 1.578-1.565c.667-.378 1.411-.567 2.233-.567.712 0 1.34.154 1.888.461M136.324 69.478A3.223 3.223 0 0 1 138 69l-.111.986a2.848 2.848 0 0 0-1.988.737c-.568.5-.967 1.177-1.198 2.027l-.775 4.25H133l1.44-7.955h.942l-.332 1.777c.35-.587.775-1.035 1.274-1.344M140.312 70.6c-.618.493-1.015 1.143-1.192 1.947h5.946c.01-.835-.21-1.491-.661-1.97-.451-.477-1.087-.716-1.907-.716-.84 0-1.57.246-2.186.74zm-1.284 2.748v.045c0 .835.257 1.504.77 2.007.514.503 1.2.755 2.062.755.498 0 .97-.08 1.416-.242a3.644 3.644 0 0 0 1.184-.694l.498.664c-.405.363-.878.64-1.417.83a5.129 5.129 0 0 1-1.728.287c-.757 0-1.423-.15-2-.453a3.272 3.272 0 0 1-1.338-1.268c-.317-.543-.475-1.172-.475-1.886 0-.825.197-1.573.592-2.241a4.224 4.224 0 0 1 1.627-1.578 4.627 4.627 0 0 1 2.28-.574c1.079 0 1.932.312 2.56.936.627.624.941 1.46.941 2.506 0 .251-.026.553-.078.906h-6.894zM148.632 70.338a3.162 3.162 0 0 0-1.181 1.233 3.647 3.647 0 0 0-.428 1.769c0 .827.243 1.497.729 2.011s1.13.772 1.932.772c.612 0 1.168-.146 1.67-.439.5-.292.894-.7 1.18-1.225.285-.524.429-1.119.429-1.785 0-.825-.244-1.496-.73-2.01-.486-.515-1.13-.771-1.932-.771-.612 0-1.168.149-1.67.445m3.648-.877c.545.309.97.734 1.27 1.279.301.544.451 1.17.451 1.874 0 .837-.193 1.589-.58 2.253a4.159 4.159 0 0 1-1.586 1.566 4.485 4.485 0 0 1-2.24.567c-.712 0-1.338-.154-1.88-.461a3.254 3.254 0 0 1-1.263-1.279c-.301-.544-.451-1.169-.451-1.875 0-.835.193-1.588.58-2.253a4.176 4.176 0 0 1 1.578-1.565c.667-.378 1.411-.567 2.233-.567.712 0 1.34.154 1.888.461M159.878 76.546a3.37 3.37 0 0 1-1.383-1.27c-.33-.545-.495-1.17-.495-1.875 0-.837.212-1.591.637-2.261a4.397 4.397 0 0 1 1.736-1.573c.733-.378 1.545-.567 2.44-.567.671 0 1.28.1 1.828.302.548.202 1.001.484 1.359.847l-.705.696c-.66-.626-1.503-.938-2.532-.938-.67 0-1.286.146-1.845.439a3.312 3.312 0 0 0-1.317 1.218 3.296 3.296 0 0 0-.477 1.761c0 .827.27 1.497.813 2.01.542.516 1.255.773 2.138.773.582 0 1.119-.088 1.61-.265a3.53 3.53 0 0 0 1.275-.78l.587.606a4.695 4.695 0 0 1-1.593.983 5.692 5.692 0 0 1-2.03.348c-.771 0-1.453-.152-2.046-.454M170.804 66.175c.13.116.196.26.196.434 0 .233-.105.433-.318.6a1.174 1.174 0 0 1-.747.252.753.753 0 0 1-.505-.176.547.547 0 0 1-.206-.433c0-.234.107-.434.318-.601.212-.167.461-.251.748-.251a.74.74 0 0 1 .514.175zm-.608 2.852L168.253 77H167l1.944-7.973h1.252zM171.715 76.356c-.477-.43-.715-1.028-.715-1.796 0-.272.03-.55.089-.833l.913-4.727h1.002l-.899 4.622c-.04.201-.06.413-.06.635 0 .576.17 1.023.51 1.341.338.319.822.477 1.45.477a3.08 3.08 0 0 0 2.063-.78c.58-.51.958-1.205 1.135-2.083l.81-4.212H179l-1.517 7.94h-1.002l.324-1.667c-.344.555-.779.98-1.304 1.272-.526.293-1.122.444-1.79.455-.854 0-1.52-.215-1.996-.644M186.106 76.576a3.485 3.485 0 0 0 1.148-1.374c.281-.58.421-1.212.421-1.9 0-.857-.233-1.554-.698-2.09-.467-.537-1.076-.804-1.827-.804a2.74 2.74 0 0 0-1.597.506c-.485.338-.87.796-1.155 1.376a4.236 4.236 0 0 0-.428 1.898c0 .858.235 1.555.706 2.091.47.537 1.086.804 1.847.804.57 0 1.099-.169 1.583-.507m-3.559.95a3.15 3.15 0 0 1-1.14-1.328c-.271-.567-.407-1.216-.407-1.946 0-.89.18-1.702.542-2.437.36-.734.85-1.313 1.47-1.737a3.548 3.548 0 0 1 2.053-.635c.751 0 1.386.208 1.904.626.518.419.864.998 1.034 1.738L189.045 66H190l-2.11 11.936h-.956l.3-1.625a3.895 3.895 0 0 1-1.327 1.247 3.374 3.374 0 0 1-1.683.442 3.023 3.023 0 0 1-1.677-.475M195.489 75.669a3.418 3.418 0 0 0 1.234-1.285 3.589 3.589 0 0 0 .452-1.776c0-.8-.25-1.453-.75-1.954-.502-.502-1.156-.752-1.964-.752-.623 0-1.196.158-1.717.474a3.483 3.483 0 0 0-1.241 1.285 3.54 3.54 0 0 0-.46 1.775c0 .802.253 1.454.758 1.955.506.502 1.168.752 1.986.752.613 0 1.18-.158 1.702-.474m-3.826.887a3.106 3.106 0 0 1-1.226-1.24c-.291-.53-.437-1.138-.437-1.82 0-.832.194-1.591.583-2.278a4.34 4.34 0 0 1 1.58-1.624A4.224 4.224 0 0 1 194.37 69c.807 0 1.49.195 2.046.586.557.391.928.932 1.112 1.625l.444-2.151H199l-1.595 7.88h-1.027l.322-1.519A4.056 4.056 0 0 1 193.465 77c-.675 0-1.275-.148-1.802-.444M205.106 76.576a3.485 3.485 0 0 0 1.148-1.374c.281-.58.421-1.212.421-1.9 0-.857-.233-1.554-.698-2.09-.467-.537-1.076-.804-1.827-.804a2.74 2.74 0 0 0-1.597.506c-.485.338-.87.796-1.155 1.376a4.236 4.236 0 0 0-.428 1.898c0 .858.235 1.555.706 2.091.47.537 1.086.804 1.847.804.57 0 1.099-.169 1.583-.507m-3.559.95a3.15 3.15 0 0 1-1.14-1.328c-.271-.567-.407-1.216-.407-1.946 0-.89.18-1.702.542-2.437.36-.734.85-1.313 1.47-1.737a3.548 3.548 0 0 1 2.053-.635c.751 0 1.386.208 1.904.626.518.419.864.998 1.034 1.738L208.045 66H209l-2.11 11.936h-.956l.3-1.625a3.895 3.895 0 0 1-1.327 1.247 3.374 3.374 0 0 1-1.683.442 3.023 3.023 0 0 1-1.677-.475M216.489 75.669a3.418 3.418 0 0 0 1.234-1.285 3.589 3.589 0 0 0 .452-1.776c0-.8-.25-1.453-.75-1.954-.502-.502-1.156-.752-1.964-.752-.623 0-1.196.158-1.717.474a3.483 3.483 0 0 0-1.241 1.285 3.54 3.54 0 0 0-.46 1.775c0 .802.253 1.454.758 1.955.506.502 1.168.752 1.986.752.613 0 1.18-.158 1.702-.474m-3.826.887a3.106 3.106 0 0 1-1.226-1.24c-.291-.53-.437-1.138-.437-1.82 0-.832.194-1.591.583-2.278a4.34 4.34 0 0 1 1.58-1.624A4.224 4.224 0 0 1 215.37 69c.807 0 1.49.195 2.046.586.557.391.928.932 1.112 1.625l.444-2.151H220l-1.595 7.88h-1.027l.322-1.519A4.056 4.056 0 0 1 214.465 77c-.675 0-1.275-.148-1.802-.444M227.285 69.644c.477.43.715 1.028.715 1.795 0 .263-.03.54-.089.834L226.998 77h-1.002l.899-4.621c.039-.202.06-.414.06-.637 0-.576-.17-1.023-.51-1.34-.338-.32-.822-.478-1.45-.478a3.08 3.08 0 0 0-2.063.78c-.58.51-.958 1.205-1.135 2.084l-.81 4.212H220l1.517-7.94h1.002l-.324 1.667c.343-.555.779-.98 1.304-1.273.526-.293 1.122-.444 1.79-.454.854 0 1.52.215 1.996.644M233.632 70.338a3.162 3.162 0 0 0-1.181 1.233 3.647 3.647 0 0 0-.428 1.769c0 .827.243 1.497.729 2.011s1.13.772 1.932.772c.612 0 1.168-.146 1.67-.439.5-.292.894-.7 1.18-1.225.285-.524.429-1.119.429-1.785 0-.825-.244-1.496-.73-2.01-.486-.515-1.13-.771-1.932-.771-.612 0-1.168.149-1.67.445m3.648-.877c.545.309.97.734 1.27 1.279.301.544.451 1.17.451 1.874 0 .837-.193 1.589-.58 2.253a4.159 4.159 0 0 1-1.586 1.566 4.485 4.485 0 0 1-2.24.567c-.712 0-1.338-.154-1.88-.461a3.254 3.254 0 0 1-1.263-1.279c-.301-.544-.451-1.169-.451-1.875 0-.835.193-1.588.58-2.253a4.176 4.176 0 0 1 1.578-1.565c.667-.378 1.411-.567 2.233-.567.712 0 1.34.154 1.888.461M9.333 38.195H12v-3.951H9.333v3.951zm12 15.805h12v-2.634h-12V54zm-12-22.39H12v-3.951H9.333v3.95zm0-5.269H12v-3.95H9.333v3.95zm0-5.268H12v-3.951H9.333v3.951zm0-6.585H12v-3.951H9.333v3.95zm0-6.586H12v-3.95H9.333v3.95zm5.334 30.293h2.666v-3.951h-2.666v3.951zm0-6.585h2.666v-3.951h-2.666v3.95zm0-5.269h2.666v-3.95h-2.666v3.95zm0-5.268h2.666v-3.951h-2.666v3.951zm0-6.585h2.666v-3.951h-2.666v3.95zm0-6.586h2.666v-3.95h-2.666v3.95zm8 42.147H24V22.39h-1.333V50.05zm4 0H28V22.39h-1.333V50.05zm2.666 0h1.334V22.39h-1.334V50.05zm40.369 2.183v-1.607h-1.723c.245-.563.327-1.127.327-1.69 0-2.571-2.135-4.661-4.76-4.661-.328 0-.656 0-.985.08-.903-1.125-2.217-1.848-3.776-1.848-2.627 0-4.76 2.09-4.76 4.662v.08c-1.806.08-3.283 1.527-3.283 3.296v.08H43.6v-6.35c2.133-.321 3.858-2.09 3.858-4.34 0-2.413-1.97-4.342-4.432-4.342-2.463 0-4.433 1.93-4.433 4.341 0 2.25 1.725 4.1 3.94 4.341v6.35h-7.141V19.757H20.126v23.867l1.962 1.56v1.512l-1.962-1.561v.49l.9.71v5.898h-3.359v-3.164H15.36v3.164H12V54h60v-1.768h-2.298zm-50.439-8.215v-.497l-2.547-2.08-5.408 4.415V44.35l5.408-4.414 2.547 2.08V18.241h2.07V0H6.607v49.766H0v1.6h12.339v-5.872l4.377-3.535 2.547 2.058z"/>
    </g>
</svg>
