<?xml version="1.0" encoding="utf-8"?>
<!-- Generator: Adobe Illustrator 12.0.0, SVG Export Plug-In . SVG Version: 6.00 Build 51448)  -->
<!DOCTYPE svg PUBLIC "-//W3C//DTD SVG 1.1//EN" "http://www.w3.org/Graphics/SVG/1.1/DTD/svg11.dtd" [
	<!ENTITY ns_svg "http://www.w3.org/2000/svg">
	<!ENTITY ns_xlink "http://www.w3.org/1999/xlink">
]>
<svg  version="1.1" id="Capa_1" xmlns="&ns_svg;" xmlns:xlink="&ns_xlink;" width="354.312" height="101.145"
	 viewBox="0 0 354.312 101.145" overflow="visible" enable-background="new 0 0 354.312 101.145" xml:space="preserve">
<g>
	<g>
		<path fill="#56595A" d="M19.493,35.599l-3.722-8.064h-3.855v8.064H1.635V4.537h15.021c4.224,0,7.488,0.969,9.792,2.902
			c2.304,1.936,3.457,4.676,3.457,8.221c0,2.244-0.421,4.202-1.263,5.871s-2.061,2.99-3.656,3.965l6.115,10.104H19.493z
			 M11.916,19.736h4.741c1.123,0,1.987-0.332,2.592-0.997s0.909-1.588,0.909-2.77c0-1.151-0.303-2.046-0.909-2.681
			s-1.47-0.953-2.592-0.953h-4.741V19.736z"/>
	</g>
	<g>
		<path fill="#56595A" d="M32.431,4.537h26.277v7.799H42.711v3.811h14.534v7.799H42.711V27.8h16.395v7.799H32.431V4.537z"/>
	</g>
	<g>
		<path fill="#56595A" d="M85.648,7.439c2.216,1.936,3.324,4.676,3.324,8.221c0,3.752-1.108,6.668-3.324,8.751
			s-5.347,3.124-9.394,3.124h-4.298v8.064h-10.28V4.537h14.579C80.302,4.537,83.433,5.505,85.648,7.439z M78.315,18.739
			c0.605-0.665,0.909-1.588,0.909-2.77c0-1.151-0.303-2.046-0.909-2.681s-1.47-0.953-2.592-0.953h-3.767v7.4h3.767
			C76.845,19.736,77.709,19.404,78.315,18.739z"/>
	</g>
	<g>
		<path fill="#56595A" d="M142.721,35.599l-3.722-8.064h-3.855v8.064h-10.28V4.537h15.021c4.224,0,7.488,0.969,9.792,2.902
			c2.304,1.936,3.457,4.676,3.457,8.221c0,2.244-0.421,4.202-1.263,5.871s-2.061,2.99-3.656,3.965l6.115,10.104H142.721z
			 M135.144,19.736h4.741c1.123,0,1.987-0.332,2.592-0.997s0.909-1.588,0.909-2.77c0-1.151-0.303-2.046-0.909-2.681
			s-1.47-0.953-2.592-0.953h-4.741V19.736z"/>
	</g>
	<g>
		<path fill="#56595A" d="M153.667,4.537h27.96v8.109h-8.862v22.953h-10.28V12.646h-8.818V4.537z"/>
	</g>
	<g>
		<path fill="#56595A" d="M201.877,35.599l-1.551-4.387h-11.654l-1.596,4.387h-10.545l13.115-31.063h10.546l12.629,31.063H201.877z
			 M191.33,23.857h6.47l-3.19-9.084L191.33,23.857z"/>
	</g>
	<g>
		<path fill="#FEFEFE" d="M115.027,5.955c2.6,1.389,4.63,3.309,6.093,5.761c1.462,2.452,2.193,5.214,2.193,8.286
			c0,3.102-0.731,5.894-2.193,8.375c-1.462,2.481-3.493,4.424-6.093,5.827s-5.524,2.104-8.773,2.104
			c-3.25,0-6.174-0.701-8.774-2.104s-4.631-3.346-6.093-5.827c-1.462-2.481-2.193-5.273-2.193-8.375s0.731-5.878,2.193-8.33
			c1.462-2.452,3.493-4.365,6.093-5.738s5.524-2.061,8.774-2.061C109.502,3.873,112.427,4.567,115.027,5.955z M103.085,13.421
			c-1.02,0.665-1.832,1.573-2.438,2.725c-0.605,1.152-0.908,2.453-0.908,3.9s0.303,2.754,0.908,3.922
			c0.605,1.166,1.418,2.09,2.438,2.769c1.019,0.68,2.12,1.019,3.301,1.019s2.26-0.332,3.234-0.996s1.743-1.588,2.304-2.77
			s0.842-2.496,0.842-3.943s-0.281-2.755-0.842-3.922s-1.33-2.075-2.304-2.725c-0.975-0.65-2.053-0.976-3.234-0.976
			S104.104,12.757,103.085,13.421z"/>
	</g>
	<g>
		<path fill="#009EE0" d="M25.352,47.271c-1.559-0.949-3.073-1.424-4.542-1.424c-1.469,0-2.804,0.385-4.004,1.156
			c-1.2,0.77-2.132,1.836-2.794,3.197c-0.663,1.361-0.994,2.902-0.994,4.621c0,1.721,0.331,3.271,0.994,4.65
			c0.663,1.379,1.594,2.463,2.794,3.251s2.535,1.183,4.004,1.183c1.361,0,2.821-0.403,4.38-1.209
			c1.559-0.807,2.947-1.873,4.166-3.199l7.202,7.686c-2.114,2.33-4.649,4.184-7.605,5.563c-2.956,1.379-5.885,2.069-8.787,2.069
			c-3.798,0-7.211-0.852-10.238-2.553c-3.028-1.703-5.402-4.067-7.122-7.095s-2.58-6.423-2.58-10.185
			c0-3.727,0.877-7.067,2.633-10.023s4.183-5.275,7.283-6.96c3.099-1.685,6.602-2.526,10.507-2.526c2.866,0,5.75,0.637,8.652,1.908
			s5.321,2.965,7.256,5.078l-7.202,8.546C28.245,49.466,26.91,48.22,25.352,47.271z"/>
	</g>
	<g>
		<path fill="#009EE0" d="M38.055,36.281h12.469v37.675H38.055V36.281z"/>
	</g>
	<g>
		<path fill="#009EE0" d="M68.415,62.723c1.075,1.146,2.365,1.72,3.87,1.72c1.469,0,2.687-0.564,3.655-1.693
			c0.967-1.129,1.451-2.606,1.451-4.434V36.281h12.469v22.035c0,3.297-0.726,6.189-2.177,8.68s-3.502,4.416-6.154,5.777
			s-5.751,2.043-9.298,2.043c-3.547,0-6.673-0.682-9.378-2.043s-4.801-3.287-6.288-5.777c-1.487-2.49-2.23-5.383-2.23-8.68V36.281
			h12.469v22.035C66.802,60.107,67.339,61.577,68.415,62.723z"/>
	</g>
	<g>
		<path fill="#009EE0" d="M121.292,38.591c3.081,1.541,5.464,3.735,7.148,6.584s2.526,6.154,2.526,9.916
			c0,3.798-0.86,7.112-2.58,9.943c-1.72,2.83-4.165,5.024-7.336,6.583s-6.853,2.338-11.044,2.338H93.667V36.281h16.822
			C114.61,36.281,118.211,37.05,121.292,38.591z M116.213,61.809c1.344-1.647,2.016-3.852,2.016-6.61
			c0-2.795-0.726-5.034-2.177-6.719c-1.451-1.684-3.395-2.525-5.831-2.525h-4.084v18.326h4.676
			C113.069,64.281,114.87,63.458,116.213,61.809z"/>
	</g>
	<g>
		<path fill="#009EE0" d="M159.875,73.956l-1.881-5.321h-14.135l-1.935,5.321h-12.792l15.909-37.675h12.792l15.317,37.675H159.875z
			 M147.083,59.713h7.847l-3.87-11.019L147.083,59.713z"/>
	</g>
	<g>
		<path fill="#009EE0" d="M201.896,38.591c3.08,1.541,5.463,3.735,7.147,6.584s2.526,6.154,2.526,9.916
			c0,3.798-0.86,7.112-2.58,9.943c-1.72,2.83-4.165,5.024-7.336,6.583s-6.853,2.338-11.045,2.338h-16.338V36.281h16.822
			C195.213,36.281,198.814,37.05,201.896,38.591z M196.816,61.809c1.344-1.647,2.016-3.852,2.016-6.61
			c0-2.795-0.725-5.034-2.176-6.719c-1.451-1.684-3.395-2.525-5.832-2.525h-4.084v18.326h4.676
			C193.673,64.281,195.473,63.458,196.816,61.809z"/>
	</g>
	<path fill-rule="evenodd" clip-rule="evenodd" fill="#F58634" d="M105.583,3.872h1.354c1.426,0.054,2.839,0.276,4.168,0.665
		c0.603,0.176,1.177,0.371,1.754,0.622c1.25,0.545,3.304,1.733,4.299,2.666c1.131,1.061,1.33,1.204,2.289,2.382
		c0.576,0.707,1.42,2.024,1.828,2.842c0.522,1.047,0.94,2.119,1.262,3.408c0.287,1.15,0.401,1.874,0.458,3.064
		c0.019,0.387,0.095,0.573,0.086,1.067c-0.018,0.996-0.267,3.182-0.524,4.065c-0.651,2.239-1.589,4.535-2.803,6.537
		c-0.322,0.53-0.584,0.944-0.902,1.475c-0.813,1.359-1.887,2.791-2.856,4.025l-2.152,2.518c-0.237,0.282-0.313,0.389-0.577,0.652
		l-1.105,1.188c-0.195,0.211-0.369,0.366-0.574,0.573l-4.263,3.849c-0.233,0.193-0.523,0.312-0.827,0.35h-0.429
		c-0.317-0.04-0.625-0.168-0.872-0.391c-1.259-1.129-2.149-1.806-3.441-3.112c-0.383-0.388-0.78-0.647-1.354-1.269L98.519,39
		c-0.498-0.49-1.365-1.625-1.805-2.128c-1.674-1.912-4.476-6.328-5.496-8.842c-1.004-2.474-1.732-4.245-1.732-7.362
		c0-5.383,2.677-10.602,7.045-13.683c0.422-0.298,0.78-0.543,1.234-0.814c0.454-0.271,0.831-0.461,1.333-0.715
		C101.03,4.482,103.292,3.958,105.583,3.872z M106.691,28.861c-1.89,0-2.203-0.085-3.887-0.783
		c-0.466-0.193-0.854-0.446-1.241-0.726c-0.756-0.546-1.438-1.287-1.979-2.036c-0.825-1.144-1.451-3.178-1.418-4.563
		c0.007-0.281,0.063-0.532,0.091-0.897c0.06-0.76,0.348-1.667,0.624-2.325c1.983-4.729,8.758-6.758,13.114-2.413
		c1.055,1.053,1.739,2.307,2.136,3.764c0.292,1.073,0.289,2.422,0.062,3.556c-0.206,1.026-0.599,1.91-1.16,2.771
		C111.733,27.207,109.191,28.861,106.691,28.861z"/>
	<path fill="none" stroke="#FEFEFE" stroke-width="0.216" stroke-miterlimit="22.9256" d="M105.583,3.872h1.354
		c1.426,0.054,2.839,0.276,4.168,0.665c0.603,0.176,1.177,0.371,1.754,0.622c1.25,0.545,3.304,1.733,4.299,2.666
		c1.131,1.061,1.33,1.204,2.289,2.382c0.576,0.707,1.42,2.024,1.828,2.842c0.522,1.047,0.94,2.119,1.262,3.408
		c0.287,1.15,0.401,1.874,0.458,3.064c0.019,0.387,0.095,0.573,0.086,1.067c-0.018,0.996-0.267,3.182-0.524,4.065
		c-0.651,2.239-1.589,4.535-2.803,6.537c-0.322,0.53-0.584,0.944-0.902,1.475c-0.813,1.359-1.887,2.791-2.856,4.025l-2.152,2.518
		c-0.237,0.282-0.313,0.389-0.577,0.652l-1.105,1.188c-0.195,0.211-0.369,0.366-0.574,0.573l-4.263,3.849
		c-0.233,0.193-0.523,0.312-0.827,0.35h-0.429c-0.317-0.04-0.625-0.168-0.872-0.391c-1.259-1.129-2.149-1.806-3.441-3.112
		c-0.383-0.388-0.78-0.647-1.354-1.269L98.519,39c-0.498-0.49-1.365-1.625-1.805-2.128c-1.674-1.912-4.476-6.328-5.496-8.842
		c-1.004-2.474-1.732-4.245-1.732-7.362c0-5.383,2.677-10.602,7.045-13.683c0.422-0.298,0.78-0.543,1.234-0.814
		c0.454-0.271,0.831-0.461,1.333-0.715C101.03,4.482,103.292,3.958,105.583,3.872z M106.691,28.861c-1.89,0-2.203-0.085-3.887-0.783
		c-0.466-0.193-0.854-0.446-1.241-0.726c-0.756-0.546-1.438-1.287-1.979-2.036c-0.825-1.144-1.451-3.178-1.418-4.563
		c0.007-0.281,0.063-0.532,0.091-0.897c0.06-0.76,0.348-1.667,0.624-2.325c1.983-4.729,8.758-6.758,13.114-2.413
		c1.055,1.053,1.739,2.307,2.136,3.764c0.292,1.073,0.289,2.422,0.062,3.556c-0.206,1.026-0.599,1.91-1.16,2.771
		C111.733,27.207,109.191,28.861,106.691,28.861z"/>
</g>
<g>
	<g>
		<path fill="#56595A" d="M16.087,85.818h1.738l-2.849,14.663h-1.299l2.472-12.736L8.19,98.91H7.416L3.792,87.745L1.32,100.481H0
			l2.849-14.663h1.76L8.19,96.899L16.087,85.818z"/>
	</g>
	<g>
		<path fill="#56595A" d="M27.503,90.065c0.761,0.426,1.351,1.017,1.77,1.771s0.628,1.62,0.628,2.597c0,1.16-0.269,2.2-0.807,3.121
			c-0.538,0.922-1.274,1.645-2.21,2.169c-0.936,0.523-1.976,0.785-3.121,0.785c-0.992,0-1.865-0.213-2.619-0.639
			c-0.754-0.426-1.34-1.017-1.759-1.771s-0.629-1.619-0.629-2.598c0-1.158,0.269-2.199,0.807-3.121
			c0.538-0.921,1.271-1.644,2.199-2.168c0.929-0.523,1.966-0.785,3.111-0.785C25.866,89.426,26.742,89.639,27.503,90.065z
			 M22.423,91.28c-0.698,0.412-1.247,0.981-1.645,1.707c-0.398,0.727-0.597,1.543-0.597,2.451c0,1.146,0.338,2.074,1.016,2.786
			s1.575,1.068,2.692,1.068c0.852,0,1.626-0.202,2.325-0.607s1.247-0.971,1.645-1.696c0.398-0.727,0.597-1.551,0.597-2.473
			c0-1.145-0.339-2.073-1.016-2.785c-0.677-0.713-1.574-1.068-2.691-1.068C23.896,90.663,23.122,90.868,22.423,91.28z"/>
	</g>
	<g>
		<path fill="#56595A" d="M41.589,90.311c0.677,0.594,1.016,1.421,1.016,2.482c0,0.363-0.042,0.747-0.125,1.152l-1.299,6.535h-1.425
			l1.278-6.389c0.056-0.279,0.084-0.572,0.084-0.88c0-0.796-0.241-1.414-0.723-1.854c-0.482-0.44-1.169-0.66-2.063-0.66
			c-1.131,0.015-2.109,0.374-2.933,1.079s-1.362,1.665-1.613,2.88l-1.152,5.823h-1.403l2.158-10.977h1.424l-0.461,2.305
			c0.489-0.769,1.107-1.354,1.854-1.76c0.747-0.404,1.595-0.614,2.545-0.629C39.966,89.42,40.912,89.717,41.589,90.311z"/>
	</g>
	<g>
		<path fill="#56595A" d="M47.957,89.504l-2.178,10.977h-1.403l2.178-10.977H47.957z M48.638,85.577
			c0.146,0.161,0.22,0.36,0.22,0.598c0,0.321-0.119,0.597-0.356,0.827s-0.517,0.346-0.838,0.346c-0.223,0-0.412-0.08-0.565-0.241
			c-0.153-0.16-0.23-0.359-0.23-0.597c0-0.321,0.119-0.597,0.356-0.827s0.517-0.346,0.838-0.346
			C48.299,85.336,48.491,85.417,48.638,85.577z"/>
	</g>
	<g>
		<path fill="#56595A" d="M51.717,97.276c-0.056,0.266-0.084,0.523-0.084,0.775c0,0.419,0.094,0.723,0.283,0.911
			s0.479,0.282,0.869,0.282c0.629-0.027,1.278-0.236,1.948-0.628l0.293,1.131c-0.838,0.503-1.683,0.769-2.535,0.796
			c-0.712,0-1.271-0.188-1.676-0.565c-0.405-0.377-0.607-0.929-0.607-1.654c0-0.252,0.035-0.565,0.104-0.942l1.299-6.473H50.02
			l0.209-1.11h1.592l0.565-2.808h1.403l-0.565,2.808h3.54l-0.21,1.11h-3.561L51.717,97.276z"/>
	</g>
	<g>
		<path fill="#56595A" d="M65.374,90.065c0.761,0.426,1.351,1.017,1.77,1.771s0.628,1.62,0.628,2.597c0,1.16-0.269,2.2-0.807,3.121
			c-0.538,0.922-1.274,1.645-2.21,2.169c-0.936,0.523-1.976,0.785-3.121,0.785c-0.992,0-1.865-0.213-2.619-0.639
			c-0.754-0.426-1.34-1.017-1.759-1.771s-0.629-1.619-0.629-2.598c0-1.158,0.269-2.199,0.807-3.121
			c0.538-0.921,1.271-1.644,2.199-2.168c0.929-0.523,1.966-0.785,3.111-0.785C63.737,89.426,64.613,89.639,65.374,90.065z
			 M60.294,91.28c-0.698,0.412-1.247,0.981-1.645,1.707c-0.398,0.727-0.597,1.543-0.597,2.451c0,1.146,0.338,2.074,1.016,2.786
			s1.575,1.068,2.692,1.068c0.852,0,1.626-0.202,2.325-0.607s1.247-0.971,1.645-1.696c0.398-0.727,0.597-1.551,0.597-2.473
			c0-1.145-0.339-2.073-1.016-2.785c-0.677-0.713-1.574-1.068-2.691-1.068C61.768,90.663,60.993,90.868,60.294,91.28z"/>
	</g>
	<g>
		<path fill="#56595A" d="M74.108,90.086c0.754-0.426,1.599-0.646,2.535-0.66l-0.167,1.361c-1.145-0.014-2.147,0.325-3.006,1.016
			c-0.858,0.691-1.462,1.624-1.812,2.797l-1.173,5.865h-1.403l2.178-10.977h1.424l-0.503,2.451
			C72.712,91.129,73.354,90.512,74.108,90.086z"/>
	</g>
	<g>
		<path fill="#56595A" d="M77.575,95.459v0.063c0,1.159,0.346,2.088,1.037,2.786c0.691,0.698,1.616,1.047,2.775,1.047
			c0.67,0,1.305-0.111,1.906-0.335s1.131-0.545,1.592-0.964l0.67,0.922c-0.544,0.503-1.18,0.887-1.906,1.152
			c-0.726,0.265-1.501,0.397-2.325,0.397c-1.02,0-1.917-0.209-2.692-0.628s-1.375-1.006-1.801-1.76
			c-0.426-0.754-0.639-1.627-0.639-2.618c0-1.146,0.266-2.182,0.796-3.11c0.531-0.929,1.261-1.658,2.189-2.189
			c0.929-0.53,1.951-0.796,3.068-0.796c1.452,0,2.601,0.434,3.446,1.299c0.845,0.865,1.267,2.025,1.267,3.477
			c0,0.35-0.035,0.769-0.105,1.258H77.575z M79.303,91.647c-0.831,0.684-1.365,1.585-1.603,2.702h8.002
			c0.014-1.159-0.283-2.07-0.89-2.733c-0.607-0.664-1.463-0.995-2.566-0.995C81.115,90.621,80.133,90.962,79.303,91.647z"/>
	</g>
	<g>
		<path fill="#56595A" d="M96.908,90.065c0.761,0.426,1.351,1.017,1.77,1.771s0.628,1.62,0.628,2.597c0,1.16-0.269,2.2-0.807,3.121
			c-0.538,0.922-1.274,1.645-2.21,2.169c-0.936,0.523-1.976,0.785-3.121,0.785c-0.992,0-1.865-0.213-2.619-0.639
			c-0.754-0.426-1.34-1.017-1.759-1.771s-0.629-1.619-0.629-2.598c0-1.158,0.269-2.199,0.807-3.121
			c0.538-0.921,1.271-1.644,2.199-2.168c0.929-0.523,1.966-0.785,3.111-0.785C95.271,89.426,96.147,89.639,96.908,90.065z
			 M91.829,91.28c-0.698,0.412-1.247,0.981-1.645,1.707c-0.398,0.727-0.597,1.543-0.597,2.451c0,1.146,0.338,2.074,1.016,2.786
			s1.575,1.068,2.692,1.068c0.852,0,1.626-0.202,2.325-0.607s1.247-0.971,1.645-1.696c0.398-0.727,0.597-1.551,0.597-2.473
			c0-1.145-0.339-2.073-1.016-2.785c-0.677-0.713-1.574-1.068-2.691-1.068C93.302,90.663,92.527,90.868,91.829,91.28z"/>
	</g>
	<g>
		<path fill="#56595A" d="M106.397,99.879c-0.74-0.42-1.316-1.006-1.728-1.76c-0.412-0.754-0.618-1.62-0.618-2.598
			c0-1.159,0.265-2.203,0.796-3.132c0.53-0.929,1.253-1.654,2.168-2.179c0.914-0.523,1.931-0.785,3.048-0.785
			c0.838,0,1.599,0.14,2.283,0.419c0.684,0.279,1.25,0.671,1.696,1.173l-0.88,0.964c-0.824-0.866-1.878-1.299-3.163-1.299
			c-0.838,0-1.606,0.202-2.304,0.607s-1.247,0.967-1.645,1.687c-0.398,0.719-0.597,1.532-0.597,2.439
			c0,1.146,0.338,2.074,1.016,2.787c0.677,0.712,1.567,1.067,2.671,1.067c0.726,0,1.396-0.122,2.011-0.366s1.146-0.604,1.592-1.079
			l0.733,0.838c-0.559,0.587-1.222,1.041-1.99,1.362s-1.613,0.481-2.535,0.481C107.989,100.507,107.137,100.297,106.397,99.879z"/>
	</g>
	<g>
		<path fill="#56595A" d="M119.248,89.504l-2.178,10.977h-1.403l2.178-10.977H119.248z M119.929,85.577
			c0.146,0.161,0.22,0.36,0.22,0.598c0,0.321-0.119,0.597-0.356,0.827s-0.517,0.346-0.838,0.346c-0.223,0-0.412-0.08-0.565-0.241
			c-0.153-0.16-0.23-0.359-0.23-0.597c0-0.321,0.119-0.597,0.356-0.827s0.517-0.346,0.838-0.346
			C119.59,85.336,119.782,85.417,119.929,85.577z"/>
	</g>
	<g>
		<path fill="#56595A" d="M122.034,99.674c-0.677-0.594-1.016-1.421-1.016-2.482c0-0.377,0.042-0.761,0.125-1.151l1.298-6.536h1.425
			l-1.278,6.389c-0.056,0.279-0.084,0.573-0.084,0.881c0,0.795,0.241,1.413,0.723,1.854c0.482,0.439,1.169,0.659,2.063,0.659
			c1.131-0.014,2.108-0.373,2.932-1.078c0.824-0.705,1.362-1.665,1.613-2.881l1.152-5.823h1.403l-2.158,10.977h-1.424l0.461-2.305
			c-0.489,0.769-1.107,1.355-1.854,1.76c-0.747,0.405-1.595,0.614-2.545,0.629C123.657,100.565,122.711,100.268,122.034,99.674z"/>
	</g>
	<g>
		<path fill="#56595A" d="M135.974,99.947c-0.719-0.412-1.278-0.987-1.676-1.728s-0.597-1.586-0.597-2.535
			c0-1.159,0.266-2.217,0.796-3.174c0.531-0.956,1.25-1.71,2.158-2.262c0.907-0.552,1.913-0.828,3.016-0.828
			s2.035,0.273,2.796,0.817c0.761,0.545,1.268,1.299,1.519,2.263l1.529-7.563h1.403l-3.1,15.543h-1.403l0.44-2.115
			c-0.531,0.697-1.18,1.239-1.948,1.623s-1.592,0.576-2.472,0.576C137.513,100.565,136.693,100.359,135.974,99.947z M141.2,98.711
			c0.712-0.44,1.274-1.037,1.687-1.791s0.618-1.578,0.618-2.473c0-1.117-0.343-2.024-1.026-2.723
			c-0.685-0.698-1.578-1.047-2.682-1.047c-0.852,0-1.634,0.22-2.346,0.659c-0.712,0.44-1.278,1.037-1.697,1.791
			c-0.419,0.755-0.628,1.578-0.628,2.472c0,1.117,0.346,2.025,1.037,2.724c0.691,0.698,1.595,1.047,2.712,1.047
			C139.713,99.371,140.488,99.151,141.2,98.711z"/>
	</g>
	<g>
		<path fill="#56595A" d="M149.662,99.947c-0.719-0.412-1.278-0.987-1.676-1.728s-0.597-1.586-0.597-2.535
			c0-1.159,0.266-2.217,0.796-3.174c0.531-0.956,1.25-1.71,2.158-2.262c0.907-0.552,1.913-0.828,3.016-0.828
			s2.035,0.273,2.796,0.817c0.761,0.545,1.268,1.299,1.519,2.263l0.607-2.996h1.403l-2.178,10.977h-1.403l0.44-2.115
			c-0.531,0.697-1.18,1.239-1.948,1.623s-1.592,0.576-2.472,0.576C151.202,100.565,150.381,100.359,149.662,99.947z M154.888,98.711
			c0.712-0.44,1.274-1.037,1.687-1.791s0.618-1.578,0.618-2.473c0-1.117-0.343-2.024-1.026-2.723
			c-0.685-0.698-1.578-1.047-2.682-1.047c-0.852,0-1.634,0.22-2.346,0.659c-0.712,0.44-1.278,1.037-1.697,1.791
			c-0.419,0.755-0.628,1.578-0.628,2.472c0,1.117,0.346,2.025,1.037,2.724c0.691,0.698,1.595,1.047,2.712,1.047
			C153.401,99.371,154.176,99.151,154.888,98.711z"/>
	</g>
	<g>
		<path fill="#56595A" d="M163.246,99.947c-0.719-0.412-1.278-0.987-1.676-1.728s-0.597-1.586-0.597-2.535
			c0-1.159,0.266-2.217,0.796-3.174c0.531-0.956,1.25-1.71,2.158-2.262c0.907-0.552,1.913-0.828,3.016-0.828
			c1.104,0,2.035,0.273,2.797,0.817c0.76,0.545,1.268,1.299,1.518,2.263l1.529-7.563h1.404l-3.101,15.543h-1.403l0.439-2.115
			c-0.531,0.697-1.18,1.239-1.947,1.623c-0.769,0.384-1.592,0.576-2.472,0.576C164.786,100.565,163.965,100.359,163.246,99.947z
			 M168.473,98.711c0.712-0.44,1.273-1.037,1.686-1.791s0.619-1.578,0.619-2.473c0-1.117-0.344-2.024-1.027-2.723
			s-1.578-1.047-2.682-1.047c-0.851,0-1.633,0.22-2.345,0.659c-0.712,0.44-1.278,1.037-1.697,1.791
			c-0.419,0.755-0.628,1.578-0.628,2.472c0,1.117,0.346,2.025,1.037,2.724c0.691,0.698,1.595,1.047,2.712,1.047
			C166.985,99.371,167.76,99.151,168.473,98.711z"/>
	</g>
	<g>
		<path fill="#56595A" d="M176.935,99.947c-0.72-0.412-1.278-0.987-1.676-1.728s-0.597-1.586-0.597-2.535
			c0-1.159,0.266-2.217,0.795-3.174c0.531-0.956,1.25-1.71,2.158-2.262s1.914-0.828,3.017-0.828s2.035,0.273,2.796,0.817
			c0.762,0.545,1.268,1.299,1.52,2.263l0.607-2.996h1.402l-2.178,10.977h-1.403l0.44-2.115c-0.531,0.697-1.181,1.239-1.949,1.623
			c-0.768,0.384-1.592,0.576-2.471,0.576C178.475,100.565,177.654,100.359,176.935,99.947z M182.16,98.711
			c0.713-0.44,1.275-1.037,1.688-1.791s0.617-1.578,0.617-2.473c0-1.117-0.342-2.024-1.025-2.723
			c-0.686-0.698-1.578-1.047-2.682-1.047c-0.852,0-1.635,0.22-2.346,0.659c-0.713,0.44-1.278,1.037-1.697,1.791
			c-0.419,0.755-0.629,1.578-0.629,2.472c0,1.117,0.346,2.025,1.037,2.724s1.596,1.047,2.713,1.047
			C180.674,99.371,181.449,99.151,182.16,98.711z"/>
	</g>
	<g>
		<path fill="#56595A" d="M198.688,90.311c0.678,0.594,1.016,1.421,1.016,2.482c0,0.363-0.041,0.747-0.125,1.152l-1.299,6.535
			h-1.424l1.277-6.389c0.057-0.279,0.084-0.572,0.084-0.88c0-0.796-0.24-1.414-0.723-1.854c-0.482-0.44-1.17-0.66-2.063-0.66
			c-1.132,0.015-2.108,0.374-2.933,1.079s-1.361,1.665-1.613,2.88l-1.152,5.823h-1.402l2.157-10.977h1.425l-0.461,2.305
			c0.488-0.769,1.106-1.354,1.854-1.76c0.747-0.404,1.596-0.614,2.545-0.629C197.064,89.42,198.011,89.717,198.688,90.311z"/>
	</g>
	<g>
		<path fill="#56595A" d="M210.198,90.065c0.761,0.426,1.351,1.017,1.771,1.771c0.418,0.754,0.628,1.62,0.628,2.597
			c0,1.16-0.269,2.2-0.807,3.121c-0.538,0.922-1.274,1.645-2.21,2.169c-0.936,0.523-1.977,0.785-3.121,0.785
			c-0.992,0-1.864-0.213-2.618-0.639c-0.755-0.426-1.341-1.017-1.759-1.771c-0.42-0.754-0.629-1.619-0.629-2.598
			c0-1.158,0.269-2.199,0.807-3.121c0.537-0.921,1.27-1.644,2.199-2.168c0.928-0.523,1.965-0.785,3.11-0.785
			C208.561,89.426,209.438,89.639,210.198,90.065z M205.119,91.28c-0.699,0.412-1.247,0.981-1.645,1.707
			c-0.398,0.727-0.598,1.543-0.598,2.451c0,1.146,0.339,2.074,1.016,2.786c0.678,0.712,1.575,1.068,2.692,1.068
			c0.852,0,1.626-0.202,2.325-0.607c0.697-0.405,1.246-0.971,1.645-1.696c0.397-0.727,0.597-1.551,0.597-2.473
			c0-1.145-0.339-2.073-1.017-2.785c-0.677-0.713-1.574-1.068-2.691-1.068C206.592,90.663,205.816,90.868,205.119,91.28z"/>
	</g>
</g>
<g>
	<path fill="#56595A" d="M256.213,83.804v-0.947l-4.875-3.96l-10.348,8.405v-2.863l10.348-8.405l4.875,3.96V34.729h3.961V0h-28.18
		v94.748h-12.643v3.047h23.611v-6.326v-4.852l8.375-6.732L256.213,83.804z M350.047,97.794v-3.047h-3.198
		c0.455-1.065,0.607-2.134,0.607-3.199c0-4.874-3.962-8.834-8.833-8.834c-0.609,0-1.219,0-1.83,0.152
		c-1.675-2.133-4.112-3.504-7.006-3.504c-4.876,0-8.836,3.961-8.836,8.835v0.151c-3.35,0.15-6.092,2.895-6.092,6.246v0.152h-13.254
		V82.714c3.959-0.609,7.161-3.961,7.161-8.226c0-4.571-3.657-8.228-8.228-8.228c-4.568,0-8.225,3.656-8.225,8.228
		c0,4.265,3.201,7.768,7.313,8.226v12.033h-13.254V36.253h-28.33V81.48l3.641,2.959v2.863l-3.641-2.959v0.931l1.67,1.343v4.852
		v6.326h-6.232v-5.995h-4.285v5.995h-6.232v3.351h111.349v-3.351H350.047z M273.883,40.214h1.523v51.792h-1.523V40.214z
		 M267.79,40.214h1.829v51.792h-1.829V40.214z M262.002,40.214h1.521v51.792h-1.521V40.214z M246.008,7.161h6.396v7.31h-6.396V7.161
		z M246.008,18.738h6.396v7.007h-6.396V18.738z M246.008,30.466h6.396v7.008h-6.396V30.466z M246.008,41.74h6.396v7.006h-6.396
		V41.74z M246.008,53.315h6.396v7.008h-6.396V53.315z M246.008,64.738h6.396v7.617h-6.396V64.738z M236.562,7.161h6.401v7.31h-6.401
		V7.161z M236.562,18.738h6.401v7.007h-6.401V18.738z M236.562,30.466h6.401v7.008h-6.401V30.466z M236.562,41.74h6.401v7.006
		h-6.401V41.74z M236.562,53.315h6.401v7.008h-6.401V53.315z M259.713,94.748h23.611v3.047h-23.611V94.748z M236.562,64.738h6.401
		v7.617h-6.401V64.738z"/>
	<g>
		
			<rect x="252.319" y="83.572" transform="matrix(-0.7779 -0.6284 0.6284 -0.7779 404.1061 310.6967)" fill="#56595A" width="9.281" height="0.724"/>
	</g>
	<g>
		
			<rect x="252.319" y="79.763" transform="matrix(-0.7779 -0.6284 0.6284 -0.7779 406.4813 303.9368)" fill="#56595A" width="9.282" height="0.724"/>
	</g>
</g>
</svg>
